<mxfile host="app.diagrams.net" agent="Mozilla/5.0 (Windows NT 10.0; Win64; x64) AppleWebKit/537.36 (KHTML, like Gecko) Chrome/128.0.0.0 Safari/537.36 Edg/128.0.0.0" version="24.7.8">
  <diagram name="Página-1" id="V7OSeu16nQTpCYBl30mt">
    <mxGraphModel dx="832" dy="471" grid="1" gridSize="10" guides="1" tooltips="1" connect="1" arrows="1" fold="1" page="1" pageScale="1" pageWidth="827" pageHeight="1169" math="0" shadow="0">
      <root>
        <mxCell id="0" />
        <mxCell id="1" parent="0" />
        <mxCell id="j-9xQ534JRwo_PN3p_k4-3" style="edgeStyle=orthogonalEdgeStyle;rounded=0;orthogonalLoop=1;jettySize=auto;html=1;exitX=0.5;exitY=1;exitDx=0;exitDy=0;" edge="1" parent="1" source="j-9xQ534JRwo_PN3p_k4-1">
          <mxGeometry relative="1" as="geometry">
            <mxPoint x="270" y="170" as="targetPoint" />
          </mxGeometry>
        </mxCell>
        <mxCell id="j-9xQ534JRwo_PN3p_k4-1" value="Inicio del Programa" style="ellipse;whiteSpace=wrap;html=1;" vertex="1" parent="1">
          <mxGeometry x="210" y="40" width="120" height="80" as="geometry" />
        </mxCell>
        <mxCell id="j-9xQ534JRwo_PN3p_k4-7" style="edgeStyle=orthogonalEdgeStyle;rounded=0;orthogonalLoop=1;jettySize=auto;html=1;exitX=0.5;exitY=1;exitDx=0;exitDy=0;" edge="1" parent="1" source="j-9xQ534JRwo_PN3p_k4-5">
          <mxGeometry relative="1" as="geometry">
            <mxPoint x="270" y="280" as="targetPoint" />
          </mxGeometry>
        </mxCell>
        <mxCell id="j-9xQ534JRwo_PN3p_k4-5" value="Planificación de aplicaciones&lt;div&gt;|&lt;/div&gt;&lt;div&gt;Arquitectura, definición de endpoints, planificación base de datos&lt;br&gt;&lt;/div&gt;" style="rounded=0;whiteSpace=wrap;html=1;" vertex="1" parent="1">
          <mxGeometry x="195" y="150" width="150" height="100" as="geometry" />
        </mxCell>
        <mxCell id="j-9xQ534JRwo_PN3p_k4-13" style="edgeStyle=orthogonalEdgeStyle;rounded=0;orthogonalLoop=1;jettySize=auto;html=1;exitX=0.5;exitY=1;exitDx=0;exitDy=0;" edge="1" parent="1" source="j-9xQ534JRwo_PN3p_k4-11">
          <mxGeometry relative="1" as="geometry">
            <mxPoint x="270" y="420" as="targetPoint" />
          </mxGeometry>
        </mxCell>
        <mxCell id="j-9xQ534JRwo_PN3p_k4-11" value="Desarrollo Backend&lt;div&gt;|&lt;/div&gt;&lt;div&gt;&lt;div&gt;Creación mapeo y gestión&amp;nbsp; de la base de datos, implementación endpoints, (CRUD)&lt;/div&gt;&lt;/div&gt;" style="rounded=0;whiteSpace=wrap;html=1;" vertex="1" parent="1">
          <mxGeometry x="192.5" y="280" width="155" height="110" as="geometry" />
        </mxCell>
        <mxCell id="j-9xQ534JRwo_PN3p_k4-18" style="edgeStyle=orthogonalEdgeStyle;rounded=0;orthogonalLoop=1;jettySize=auto;html=1;exitX=0.5;exitY=1;exitDx=0;exitDy=0;" edge="1" parent="1" source="j-9xQ534JRwo_PN3p_k4-14">
          <mxGeometry relative="1" as="geometry">
            <mxPoint x="270" y="560" as="targetPoint" />
          </mxGeometry>
        </mxCell>
        <mxCell id="j-9xQ534JRwo_PN3p_k4-14" value="Desarrollo Frontend&lt;div&gt;|&lt;/div&gt;&lt;div&gt;Creación y configuración del entorno, maestros, formulario, y vistas, integración con el backend.&lt;/div&gt;" style="rounded=0;whiteSpace=wrap;html=1;" vertex="1" parent="1">
          <mxGeometry x="180" y="430" width="180" height="100" as="geometry" />
        </mxCell>
        <mxCell id="j-9xQ534JRwo_PN3p_k4-21" style="edgeStyle=orthogonalEdgeStyle;rounded=0;orthogonalLoop=1;jettySize=auto;html=1;exitX=0.5;exitY=1;exitDx=0;exitDy=0;" edge="1" parent="1" source="j-9xQ534JRwo_PN3p_k4-19">
          <mxGeometry relative="1" as="geometry">
            <mxPoint x="270" y="640" as="targetPoint" />
          </mxGeometry>
        </mxCell>
        <mxCell id="j-9xQ534JRwo_PN3p_k4-19" value="Pruebas y Validaciones&lt;div&gt;Pruebas Unitarias.&lt;/div&gt;" style="rounded=0;whiteSpace=wrap;html=1;" vertex="1" parent="1">
          <mxGeometry x="186.25" y="565" width="167.5" height="40" as="geometry" />
        </mxCell>
        <mxCell id="j-9xQ534JRwo_PN3p_k4-28" style="edgeStyle=orthogonalEdgeStyle;rounded=0;orthogonalLoop=1;jettySize=auto;html=1;" edge="1" parent="1" source="j-9xQ534JRwo_PN3p_k4-22">
          <mxGeometry relative="1" as="geometry">
            <mxPoint x="270" y="750" as="targetPoint" />
          </mxGeometry>
        </mxCell>
        <mxCell id="j-9xQ534JRwo_PN3p_k4-22" value="Implementación y Despliegue&lt;div&gt;|&lt;/div&gt;&lt;div&gt;Preparación del ambiente de producción, configuración y despliegue de aplicación&lt;/div&gt;" style="rounded=0;whiteSpace=wrap;html=1;" vertex="1" parent="1">
          <mxGeometry x="180" y="640" width="180" height="80" as="geometry" />
        </mxCell>
        <mxCell id="j-9xQ534JRwo_PN3p_k4-26" value="Fin del programa" style="ellipse;whiteSpace=wrap;html=1;" vertex="1" parent="1">
          <mxGeometry x="210" y="750" width="120" height="80" as="geometry" />
        </mxCell>
      </root>
    </mxGraphModel>
  </diagram>
</mxfile>
